# xmcd
#
# Track frame offsets: 
#        150
#        12680
#        24740
#        34552
#        46207
#        57685
#        65895
#        79817
#        89460
#        100737
#        110165
#        121802
#
# Disc length: 1755 seconds
#
# Revision: 3
# Processed by: cddbd v1.5.1PL0 Copyright (c) Steve Scherf et al.
# Submitted via: ExactAudioCopy v0.90b4
#
DISCID=a706d90c
DTITLE=Chet Atkins - Back Home Hymns
DYEAR=1900
DGENRE=Gospel
TTITLE0=Take My Hand, Precious Lord
TTITLE1=Amazing Grace
TTITLE2=Will The Circle Be Unbroken
TTITLE3=In The Garden
TTITLE4=When They Ring The Golden Bells
TTITLE5=Just As I Am
TTITLE6=Further Along
TTITLE7=Just A Closer Walk With Thee
TTITLE8=The Old Rugged Cross
TTITLE9=Lonsesome Valley
TTITLE10=God Be With You
TTITLE11=Were You There
EXTD=
EXTT0=
EXTT1=
EXTT2=
EXTT3=
EXTT4=
EXTT5=
EXTT6=
EXTT7=
EXTT8=
EXTT9=
EXTT10=
EXTT11=
PLAYORDER=
